# xmcd
#
# Track frame offsets: 
#        150
#        18052
#        45518
#        64254
#        90983
#        108663
#        123378
#        152779
#        176784
#        192217
#        207342
#        232370
#
# Disc length: 3304 seconds
#
# Revision: 0
# Processed by: cddbd v1.5.2PL0 Copyright (c) Steve Scherf et al.
# Submitted via: ExactAudioCopy v0.95b4
#
DISCID=a20ce60c
DTITLE=Conrad Story Blues Band - Obsession Road
DYEAR=2007
DGENRE=Blues
TTITLE0=Storytime
TTITLE1=Road to my Obsession
TTITLE2=Try, Try, Try
TTITLE3=One More Time
TTITLE4=True-blue and Faithful
TTITLE5=Crazymean Woman
TTITLE6=Cry on Brother
TTITLE7=Show me Mercy
TTITLE8=Someday
TTITLE9=She Caught the Katy
TTITLE10=Dark Side of the Mountain
TTITLE11=Tired of Bluesmen Crying
EXTD=
EXTT0=
EXTT1=
EXTT2=
EXTT3=
EXTT4=
EXTT5=
EXTT6=
EXTT7=
EXTT8=
EXTT9=
EXTT10=
EXTT11=
PLAYORDER=
